<svg xmlns="http://www.w3.org/2000/svg" viewBox="0 0 512 512" width="512" height="512">
  <circle cx="256" cy="256" r="210" fill="#FFD43B" stroke="#E0A800" stroke-width="10"/><path d="M190 190 c18 -22 52 -18 52 12 c0 26 -34 44 -52 62 c-18 -18 -52 -36 -52 -62 c0 -30 34 -34 52 -12z" fill="#FF2D55"/>
              <path d="M322 190 c18 -22 52 -18 52 12 c0 26 -34 44 -52 62 c-18 -18 -52 -36 -52 -62 c0 -30 34 -34 52 -12z" fill="#FF2D55"/><path d="M150 300 q106 108 212 0 z" fill="#7A1F2B"/><path d="M150 300 q106 20 212 0" fill="#FFF"/></svg>
